<svg width="33" height="33" viewBox="0 0 33 33" fill="none" xmlns="http://www.w3.org/2000/svg">
<g id="i_sperax_logo.0a13bd5d.svg" clip-path="url(#clip0_1_21)">
<path id="Vector" fill-rule="evenodd" clip-rule="evenodd" d="M25.9827 19.5474C19.1069 19.5474 13.5345 13.9765 13.5345 7.11006C13.5345 3.51495 10.6344 0.599976 7.01732 0.599976C3.43277 0.599976 0.5 3.51495 0.5 7.11006C0.5 10.7053 3.40015 13.6203 7.01732 13.6203H7.04984C13.8929 13.6203 19.4328 19.191 19.4653 26.0574V26.0898C19.4653 29.685 22.3655 32.6 25.9827 32.6C29.5999 32.6 32.5 29.685 32.5 26.0898C32.4673 22.4624 29.5672 19.5474 25.9827 19.5474Z" fill="#31C1BF"/>
<path id="Vector_2" fill-rule="evenodd" clip-rule="evenodd" d="M7.04989 19.5479C3.46534 19.5479 0.532562 22.4629 0.532562 26.058C0.532562 29.6532 3.43272 32.5681 7.04989 32.5681C10.6669 32.5681 13.5672 29.6532 13.5672 26.058C13.5346 22.4629 10.6344 19.5479 7.04989 19.5479Z" fill="#31C1BF"/>
<path id="Vector_3" fill-rule="evenodd" clip-rule="evenodd" d="M25.9828 0.599976C29.5823 0.599976 32.5001 3.5146 32.5001 7.11005C32.5001 10.7055 29.5823 13.6203 25.9828 13.6203C22.3833 13.6203 19.4655 10.7055 19.4655 7.11005C19.4655 3.5146 22.3833 0.599976 25.9828 0.599976Z" fill="#31C1BF"/>
</g>
<defs>
<clipPath id="clip0_1_21">
<rect width="32" height="32" fill="white" transform="translate(0.5 0.599976)"/>
</clipPath>
</defs>
</svg>
