<svg width="19" height="19" viewBox="0 0 19 19" fill="none" xmlns="http://www.w3.org/2000/svg">
<g id="copy.395a4a63.svg" clip-path="url(#clip0_1_136)">
<path id="Vector" d="M13.24 5.6V3.6C13.24 3.06957 13.0293 2.56086 12.6542 2.18579C12.2791 1.81071 11.7704 1.6 11.24 1.6H3.24001C2.70958 1.6 2.20087 1.81071 1.8258 2.18579C1.45072 2.56086 1.24001 3.06957 1.24001 3.6V11.6C1.24001 12.1304 1.45072 12.6391 1.8258 13.0142C2.20087 13.3893 2.70958 13.6 3.24001 13.6H5.24001M7.24001 5.6H15.24C16.3446 5.6 17.24 6.49543 17.24 7.6V15.6C17.24 16.7046 16.3446 17.6 15.24 17.6H7.24001C6.13544 17.6 5.24001 16.7046 5.24001 15.6V7.6C5.24001 6.49543 6.13544 5.6 7.24001 5.6Z" stroke="#707E85" stroke-width="2" stroke-linecap="round" stroke-linejoin="round"/>
</g>
<defs>
<clipPath id="clip0_1_136">
<rect width="18" height="18" fill="white" transform="translate(0.240005 0.599998)"/>
</clipPath>
</defs>
</svg>
