<svg width="21" height="21" viewBox="0 0 21 21" fill="none" xmlns="http://www.w3.org/2000/svg">
<g id="Frame">
<path id="Vector" d="M10.2528 0.3C4.59155 0.3 0 4.89069 0 10.5528C0 15.0828 2.93743 18.9259 7.01206 20.2819C7.52385 20.3767 7.6896 20.0589 7.6896 19.7889V17.8801C4.83761 18.5004 4.24381 16.6703 4.24381 16.6703C3.7773 15.4853 3.10489 15.17 3.10489 15.17C2.17445 14.5335 3.17581 14.5471 3.17581 14.5471C4.20536 14.6189 4.74705 15.604 4.74705 15.604C5.66126 17.171 7.14535 16.7182 7.73061 16.4559C7.82204 15.7937 8.08775 15.3409 8.38167 15.0854C6.10469 14.8248 3.71066 13.9456 3.71066 10.018C3.71066 8.89783 4.11137 7.98362 4.7667 7.26593C4.66075 7.00704 4.3096 5.96382 4.86666 4.55235C4.86666 4.55235 5.7279 4.27723 7.68704 5.60326C8.5047 5.37599 9.38132 5.26236 10.2528 5.25808C11.1243 5.26236 12.0018 5.37599 12.8211 5.60326C14.7786 4.27723 15.6381 4.55235 15.6381 4.55235C16.196 5.96467 15.8449 7.0079 15.7389 7.26593C16.3968 7.98362 16.7941 8.89868 16.7941 10.018C16.7941 13.9559 14.3958 14.8231 12.1128 15.0769C12.4802 15.3947 12.816 16.0184 12.816 16.9753V19.7889C12.816 20.0614 12.98 20.3818 13.5004 20.281C17.5716 18.9234 20.5056 15.0811 20.5056 10.5528C20.5056 4.89069 15.9149 0.3 10.2528 0.3Z" fill="#ABB7BD"/>
</g>
</svg>
