<svg width="25" height="25" viewBox="0 0 25 25" fill="none" xmlns="http://www.w3.org/2000/svg">
<g id="i_more.cc8d8ec7.svg">
<path id="Vector" d="M12.5 13.6C13.0523 13.6 13.5 13.1523 13.5 12.6C13.5 12.0477 13.0523 11.6 12.5 11.6C11.9477 11.6 11.5 12.0477 11.5 12.6C11.5 13.1523 11.9477 13.6 12.5 13.6Z" stroke="#404B51" stroke-width="2" stroke-linecap="round" stroke-linejoin="round"/>
<path id="Vector_2" d="M19.5 13.6C20.0523 13.6 20.5 13.1523 20.5 12.6C20.5 12.0477 20.0523 11.6 19.5 11.6C18.9477 11.6 18.5 12.0477 18.5 12.6C18.5 13.1523 18.9477 13.6 19.5 13.6Z" stroke="#404B51" stroke-width="2" stroke-linecap="round" stroke-linejoin="round"/>
<path id="Vector_3" d="M5.5 13.6C6.05228 13.6 6.5 13.1523 6.5 12.6C6.5 12.0477 6.05228 11.6 5.5 11.6C4.94772 11.6 4.5 12.0477 4.5 12.6C4.5 13.1523 4.94772 13.6 5.5 13.6Z" stroke="#404B51" stroke-width="2" stroke-linecap="round" stroke-linejoin="round"/>
</g>
</svg>
