<svg width="24" height="25" viewBox="0 0 24 25" fill="none" xmlns="http://www.w3.org/2000/svg">
<g id="i_usds.2cf19860.svg" clip-path="url(#clip0_1_130)">
<path id="Vector" d="M24 12.5998C24 15.7824 22.7357 18.8347 20.4852 21.0852C18.2348 23.3357 15.1824 24.6 11.9998 24.6C8.8173 24.5999 5.76515 23.3356 3.51478 21.0852C1.26441 18.8349 0.00010948 15.7827 0 12.6002C-1.88315e-09 9.41765 1.26425 6.3654 3.51464 4.11492C5.765 1.86446 8.8172 0.600108 11.9998 0.599998C15.1824 0.599998 18.2346 1.86424 20.4851 4.11463C22.7355 6.365 23.9999 9.4172 24 12.5998Z" fill="#111C23"/>
<path id="Vector_2" d="M13.6412 20.2034C13.5496 20.2035 13.4609 20.1713 13.3906 20.1126C13.3466 20.0759 13.3113 20.03 13.287 19.9781C13.2628 19.9263 13.2502 19.8697 13.2502 19.8125V16.5851C13.2503 16.4935 13.2824 16.4048 13.3411 16.3345C13.3998 16.2642 13.4813 16.2167 13.5714 16.2003C14.4581 16.0379 15.2755 15.6126 15.9174 14.9796C16.0442 14.8532 16.162 14.7182 16.27 14.5755C15.1479 13.4576 13.8566 13.9393 12.3614 14.4966L11.9123 14.6617C10.3848 15.2314 8.65104 15.8771 7.17354 14.3992C6.69779 13.913 6.39914 13.281 6.32544 12.6047C6.25179 11.9285 6.40739 11.2471 6.76734 10.6698C5.96314 9.41855 6.23849 7.73095 7.53024 6.43885C8.28484 5.6939 9.24609 5.19317 10.2891 5.00183C10.3454 4.99156 10.4033 4.99382 10.4587 5.00844C10.514 5.02307 10.5655 5.0497 10.6094 5.08646C10.6534 5.12313 10.6887 5.16903 10.713 5.22089C10.7373 5.27276 10.7498 5.32932 10.7498 5.38658V8.6177C10.7497 8.7092 10.7176 8.79785 10.659 8.8681C10.6004 8.9384 10.519 8.98595 10.429 9.00245C9.54229 9.1649 8.72489 9.5902 8.08299 10.2231C7.95634 10.3496 7.83854 10.4846 7.73044 10.6273C8.85249 11.7448 10.1438 11.2634 11.639 10.7057L12.0881 10.5406C13.6156 9.9705 15.3494 9.32485 16.8269 10.8031C17.1289 11.1026 17.361 11.4652 17.5066 11.8648C17.6521 12.2645 17.7076 12.6913 17.669 13.1149C17.6239 13.6114 17.4748 14.0929 17.2314 14.528C18.0373 15.7776 17.7631 17.4673 16.4685 18.7602C15.7143 19.505 14.7535 20.0057 13.7109 20.1972C13.6878 20.2014 13.6647 20.2035 13.6412 20.2034ZM14.0317 16.9009V19.3175C14.7426 19.1101 15.3905 18.7286 15.9166 18.2074C16.8248 17.2992 17.1117 16.1586 16.7286 15.2525C16.6461 15.3485 16.5598 15.4422 16.4698 15.5336C15.7955 16.2004 14.9535 16.6727 14.0329 16.9005L14.0317 16.9009ZM7.32464 11.3179C7.12279 11.7296 7.05299 12.1936 7.12479 12.6465C7.19664 13.0994 7.40654 13.519 7.72589 13.8481C8.84874 14.9709 10.1413 14.4888 11.6382 13.9306L12.0873 13.7655C13.564 13.2152 15.2309 12.5939 16.675 13.8852C16.7908 13.6205 16.8629 13.3388 16.8884 13.0509C16.9172 12.7403 16.8769 12.4272 16.7705 12.1339C16.6641 11.8406 16.4942 11.5746 16.2729 11.3547C15.15 10.2318 13.8575 10.714 12.3606 11.2721L11.9114 11.4372C10.4352 11.9875 8.76824 12.6092 7.32424 11.3183L7.32464 11.3179ZM9.96624 5.88445C9.25539 6.09195 8.60754 6.47345 8.08134 6.9945C7.17314 7.9027 6.88624 9.0429 7.26889 9.94865C7.35149 9.8534 7.43804 9.75985 7.52859 9.6679C8.20294 9.00065 9.04524 8.5282 9.96624 8.30065V5.88445Z" fill="#00FFB9"/>
</g>
<defs>
<clipPath id="clip0_1_130">
<rect width="24" height="24" fill="white" transform="translate(0 0.599998)"/>
</clipPath>
</defs>
</svg>
