<svg width="25" height="25" viewBox="0 0 25 25" fill="none" xmlns="http://www.w3.org/2000/svg">
<g id="icon_vespa.211e7225.svg" clip-path="url(#clip0_1_200)">
<path id="Vector" d="M24.8 12.6C24.8 5.97258 19.4274 0.599998 12.8 0.599998C6.17257 0.599998 0.799988 5.97258 0.799988 12.6C0.799988 19.2274 6.17257 24.6 12.8 24.6C19.4274 24.6 24.8 19.2274 24.8 12.6Z" fill="#31C1BF"/>
<path id="Vector_2" fill-rule="evenodd" clip-rule="evenodd" d="M16.356 13.7053C13.7775 13.7053 11.688 11.6162 11.688 9.04132C11.688 7.69314 10.6004 6.60002 9.24401 6.60002C7.89978 6.60002 6.79999 7.69314 6.79999 9.04132C6.79999 10.3895 7.88754 11.4826 9.24401 11.4826H9.25616C11.8224 11.4826 13.8998 13.5717 13.912 16.1466V16.1587C13.912 17.5069 14.9995 18.6 16.356 18.6C17.7124 18.6 18.8 17.5069 18.8 16.1587C18.7878 14.7984 17.7002 13.7053 16.356 13.7053Z" fill="white"/>
<path id="Vector_3" fill-rule="evenodd" clip-rule="evenodd" d="M9.25616 13.7053C7.91195 13.7053 6.81216 14.7984 6.81216 16.1466C6.81216 17.4948 7.89972 18.5879 9.25616 18.5879C10.6125 18.5879 11.7002 17.4948 11.7002 16.1466C11.6879 14.7984 10.6004 13.7053 9.25616 13.7053Z" fill="white"/>
<path id="Vector_4" fill-rule="evenodd" clip-rule="evenodd" d="M16.356 6.6C17.7057 6.6 18.8 7.69298 18.8 9.04125C18.8 10.3896 17.7057 11.4826 16.356 11.4826C15.0062 11.4826 13.912 10.3896 13.912 9.04125C13.912 7.69298 15.0062 6.6 16.356 6.6Z" fill="white"/>
<path id="Vector_5" d="M18.8 24.6C22.1137 24.6 24.8 21.9137 24.8 18.6C24.8 15.2863 22.1137 12.6 18.8 12.6C15.4863 12.6 12.8 15.2863 12.8 18.6C12.8 21.9137 15.4863 24.6 18.8 24.6Z" fill="#1B2022"/>
<path id="Vector_6" d="M18.6034 17.4622C18.6767 17.3868 18.7949 17.3824 18.8773 17.4478C18.9677 17.5196 18.9839 17.6506 18.9149 17.743C18.1853 18.7197 17.687 19.5403 17.42 20.205C17.324 20.439 17.186 20.556 17.006 20.556C16.892 20.556 16.79 20.496 16.7 20.376C16.616 20.256 16.559 20.148 16.529 20.052C16.505 19.95 16.463 19.74 16.403 19.422C16.343 19.104 16.277 18.774 16.205 18.432C16.133 18.084 16.073 17.826 16.025 17.658C15.983 17.484 15.953 17.37 15.935 17.316C15.923 17.262 15.899 17.217 15.863 17.181C15.8338 17.1469 15.8576 17.1053 15.9023 17.1094L16.2374 17.1403C16.328 17.1487 16.4069 17.2068 16.4395 17.2918C16.5881 17.6791 16.7078 18.0952 16.799 18.54C16.823 18.642 16.865 18.849 16.925 19.161C16.985 19.467 17.033 19.707 17.069 19.881C17.399 19.245 17.687 18.729 17.933 18.333C18.1457 17.9935 18.3692 17.7033 18.6034 17.4622Z" fill="white"/>
<path id="Vector_7" d="M21.6354 19.5553C21.6921 19.5193 21.7656 19.522 21.8186 19.5634C21.8847 19.6151 21.8986 19.7103 21.8443 19.7743C21.6693 19.9807 21.4452 20.1573 21.1719 20.304C20.8479 20.472 20.5329 20.556 20.2269 20.556C19.9209 20.556 19.6749 20.466 19.4889 20.286C19.3029 20.106 19.2099 19.869 19.2099 19.575C19.2099 19.023 19.5009 18.48 20.0829 17.946C20.6709 17.412 21.2649 17.145 21.8649 17.145C22.2609 17.145 22.4589 17.301 22.4589 17.613C22.4589 17.937 22.2489 18.264 21.8289 18.594C21.4149 18.924 20.8299 19.224 20.0739 19.494C20.1279 19.632 20.2119 19.74 20.3259 19.818C20.4399 19.896 20.5569 19.935 20.6769 19.935C20.9163 19.935 21.2358 19.8084 21.6354 19.5553ZM20.0289 19.224C20.5149 19.056 20.9319 18.846 21.2799 18.594C21.6279 18.342 21.8019 18.111 21.8019 17.901C21.8019 17.823 21.7719 17.754 21.7119 17.694C21.6519 17.634 21.5829 17.604 21.5049 17.604C21.2229 17.604 20.9169 17.781 20.5869 18.135C20.2629 18.483 20.0769 18.846 20.0289 19.224Z" fill="white"/>
</g>
<defs>
<clipPath id="clip0_1_200">
<rect width="24" height="24" fill="white" transform="translate(0.799988 0.599998)"/>
</clipPath>
</defs>
</svg>
