<svg width="28" height="17" viewBox="0 0 28 17" fill="none" xmlns="http://www.w3.org/2000/svg">
<g id="Frame">
<path id="Vector" d="M15.2553 7.98013C15.2553 12.2216 11.8402 15.66 7.62778 15.66C3.41532 15.66 0 12.2208 0 7.98013C0 3.73942 3.41506 0.3 7.62778 0.3C11.8405 0.3 15.2553 3.73864 15.2553 7.98013Z" fill="#ABB7BD"/>
<path id="Vector_2" d="M23.6227 7.98008C23.6227 11.9725 21.9151 15.2103 19.8088 15.2103C17.7024 15.2103 15.9949 11.9725 15.9949 7.98008C15.9949 3.98763 17.7021 0.749829 19.8085 0.749829C21.9149 0.749829 23.6227 3.9866 23.6227 7.98008Z" fill="#ABB7BD"/>
<path id="Vector_3" d="M27.0457 7.98016C27.0457 11.5564 26.4453 14.4573 25.7044 14.4573C24.9635 14.4573 24.3633 11.5572 24.3633 7.98016C24.3633 4.40314 24.9637 1.503 25.7044 1.503C26.445 1.503 27.0457 4.40288 27.0457 7.98016Z" fill="#ABB7BD"/>
</g>
</svg>
