<svg width="24" height="26" viewBox="0 0 24 26" fill="none" xmlns="http://www.w3.org/2000/svg">
<g id="Frame">
<path id="Vector" d="M20.8748 15.1699C20.4498 15.4296 19.9539 15.4768 19.576 15.2643C19.1038 14.9809 18.8204 14.3434 18.8204 13.4696V10.8013C18.8204 9.52611 18.3245 8.60516 17.4744 8.36902C16.0339 7.94397 14.9477 9.71502 14.5463 10.3762L11.9959 14.4614V9.43165C11.9723 8.27457 11.5945 7.58976 10.8861 7.37724C10.4138 7.23555 9.70537 7.3064 9.02056 8.34541L3.32958 17.4604C2.57393 16.02 2.17249 14.4142 2.17249 12.7848C2.17249 7.28278 6.58832 2.81973 11.9959 2.81973C17.4035 2.81973 21.8194 7.28278 21.8194 12.7848V12.8085V12.8321C21.8666 13.8947 21.536 14.7448 20.8748 15.1699ZM23.9919 12.7848V12.7612V12.7376C23.9683 6.05485 18.5842 0.600006 11.9959 0.600006C5.384 0.600006 0 6.05485 0 12.7848C0 19.4912 5.384 24.9697 11.9959 24.9697C15.0421 24.9697 17.9231 23.8126 20.1428 21.7109C20.5914 21.2859 20.6151 20.6011 20.19 20.1524C19.7886 19.7038 19.1038 19.6801 18.6551 20.0816C18.6551 20.0816 18.6551 20.0816 18.6315 20.1052C16.8368 21.8054 14.4282 22.7736 11.9487 22.7736C9.04418 22.7736 6.44663 21.4984 4.65197 19.4676L9.77621 11.2499V15.0518C9.77621 16.8701 10.4846 17.4604 11.075 17.6257C11.6653 17.791 12.5627 17.6729 13.5308 16.138L16.3409 11.5805C16.4354 11.4388 16.5062 11.2972 16.6007 11.2027V13.5169C16.6007 15.2171 17.2855 16.5867 18.4662 17.2479C19.5288 17.8619 20.8748 17.791 21.9847 17.1062C23.3543 16.2089 24.0863 14.6503 23.9919 12.7848Z" fill="#85939A"/>
</g>
</svg>
