<svg width="24" height="26" viewBox="0 0 24 26" fill="none" xmlns="http://www.w3.org/2000/svg">
<g id="Frame">
<path id="Vector" fill-rule="evenodd" clip-rule="evenodd" d="M11.9843 0.600142C18.6353 0.600142 24 5.96485 24 12.6472C24 19.2354 18.5725 24.6629 11.8902 24.6315C5.42745 24.5688 0 19.2354 0 12.6158C0 5.96485 5.33333 0.56877 11.9843 0.600142ZM2.8549 18.8903C2.8549 19.0158 2.91765 19.0786 2.98039 19.1727C3.45098 19.8315 3.98431 20.459 4.61176 20.9923C4.89412 21.2433 5.17647 21.4943 5.4902 21.7139C6.36863 22.2786 7.27843 22.8119 8.28235 23.157C9.09804 23.4394 9.9451 23.659 10.7922 23.7531C11.451 23.8158 12.1412 23.8472 12.8 23.7531C13.1765 23.6903 13.5843 23.6903 13.9608 23.5335C14.0235 23.5648 14.0549 23.5021 14.0863 23.5021C14.8706 23.3766 15.6235 23.1256 16.3765 22.8119C18.8235 21.7452 20.6745 20.0197 21.8667 17.6354C22.9333 15.5335 23.2784 13.306 22.9333 10.9844C22.6196 8.75701 21.6784 6.81191 20.1726 5.18054C18.1647 2.89034 15.5922 1.69819 12.549 1.50995C11.2 1.41583 9.85098 1.60407 8.56471 2.04328C6.46275 2.73348 4.73726 3.92564 3.32549 5.65113C1.72549 7.6276 0.941176 9.88642 0.847058 12.3962C0.815686 13.0237 0.878431 13.6197 0.972549 14.2472C1.16078 15.659 1.63137 17.008 2.35294 18.2315C2.54118 18.4197 2.66667 18.6707 2.8549 18.8903Z" fill="#85939A"/>
<path id="Vector_2" fill-rule="evenodd" clip-rule="evenodd" d="M13.9609 23.5023C13.5844 23.6905 13.1765 23.6905 12.8001 23.7219C12.1413 23.816 11.4511 23.7846 10.7922 23.7219C9.94518 23.6278 9.09812 23.4081 8.28243 23.1258C7.27851 22.7807 6.36871 22.2474 5.49027 21.6827C5.17655 21.4631 4.8942 21.2121 4.61184 20.9611C3.98439 20.4278 3.45106 19.8003 2.98047 19.1415C2.91772 19.0474 2.85498 18.9533 2.85498 18.8591C3.60792 17.165 3.89027 15.3768 4.04714 13.5572C4.10988 12.7101 4.14125 11.8631 4.29812 11.016C4.45498 10.0435 4.83145 9.16502 5.52165 8.41208C6.1491 7.75326 6.93341 7.31404 7.78047 7.00032C8.47067 6.71796 9.19224 6.46698 9.97655 6.43561C10.6981 6.40424 11.3883 6.49836 12.0785 6.65522C13.1138 6.9062 14.1491 7.21992 15.1216 7.69051C15.906 8.00424 16.7216 8.31796 17.5373 8.56895C18.3844 8.81993 19.2315 9.10228 19.953 9.63561C20.8628 10.3258 21.1138 11.2042 20.706 12.2709C20.455 12.9297 19.9844 13.4317 19.5138 13.9336C18.6667 14.8121 17.7569 15.6278 16.9413 16.5376C16.0001 17.6356 15.153 18.765 14.5569 20.0827C14.055 21.1807 13.7726 22.3101 13.9609 23.5023ZM20.0158 13.1807C19.9844 13.1807 19.953 13.1807 19.9216 13.2121C19.8903 13.2121 19.8589 13.2434 19.8589 13.2748C19.8589 13.2748 19.8589 13.2748 19.8589 13.3062C19.8903 13.3062 19.9216 13.2748 19.9216 13.2434L20.0158 13.1807C20.0785 13.1807 20.0471 13.1807 20.0158 13.1807ZM10.4158 7.72189C9.22361 7.72189 8.25106 8.69443 8.25106 9.85522C8.25106 11.0474 9.22361 11.9885 10.3844 12.0199C11.5765 12.0199 12.5177 11.0474 12.5491 9.85522C12.5491 8.66306 11.6079 7.72189 10.4158 7.72189ZM12.1726 14.3101C12.3609 14.5925 12.706 14.8434 13.1138 14.9689C13.9295 15.2513 14.7452 15.2513 15.5609 15.0944C17.004 14.8121 18.353 14.3101 19.5765 13.4944C19.6393 13.4317 19.7648 13.4317 19.7962 13.3062C19.7334 13.2748 19.702 13.3062 19.6707 13.3376C19.2628 13.5885 18.8236 13.7768 18.3844 13.965C17.255 14.4356 16.0628 14.7493 14.8079 14.8121C13.8981 14.8748 12.9883 14.8121 12.1726 14.3101ZM18.102 12.4591C18.353 12.4591 18.5726 12.2395 18.5726 11.9572C18.5726 11.7062 18.353 11.4866 18.0707 11.518C17.8197 11.518 17.6315 11.7376 17.6315 11.9885C17.6315 12.2709 17.8197 12.4591 18.102 12.4591Z" fill="#85939A"/>
<path id="Vector_3" fill-rule="evenodd" clip-rule="evenodd" d="M12.0472 6.65513C11.357 6.52964 10.6668 6.40415 9.94519 6.43552C9.16088 6.46689 8.47068 6.71787 7.74911 7.00023C6.90205 7.31395 6.11774 7.75317 5.49029 8.41199C4.80009 9.13356 4.42362 10.012 4.26676 11.0159C4.14127 11.863 4.1099 12.71 4.01578 13.5571C3.85892 15.3767 3.57656 17.1963 2.82362 18.859C2.60401 18.6708 2.47852 18.3885 2.35303 18.1688C1.63146 16.9453 1.16088 15.5963 0.972641 14.1845C0.878523 13.5571 0.815778 12.961 0.84715 12.3336C0.941268 9.82376 1.72558 7.56493 3.32558 5.58846C4.70597 3.86297 6.46284 2.67081 8.5648 1.98062C9.85107 1.57277 11.2001 1.38454 12.5491 1.44728C15.5609 1.63552 18.1334 2.85905 20.1726 5.0865C21.6785 6.74925 22.5883 8.69434 22.9334 10.8904C23.2785 13.212 22.9334 15.4394 21.8668 17.5414C20.6746 19.9257 18.8236 21.6512 16.3766 22.7179C15.655 23.0316 14.9021 23.2826 14.0864 23.4081C14.0236 23.4081 13.9922 23.5022 13.9609 23.4394C13.7726 22.2473 14.055 21.1179 14.5256 20.0198C15.1217 18.7022 15.9687 17.5728 16.9099 16.4747C17.6942 15.5649 18.604 14.7179 19.4824 13.8708C19.9844 13.3688 20.4236 12.8669 20.6746 12.2081C21.1138 11.1414 20.8628 10.263 19.9217 9.57277C19.2001 9.03944 18.353 8.75709 17.506 8.50611C16.6903 8.25513 15.8746 7.9414 15.0903 7.62768C14.9334 7.09434 14.557 6.74925 14.055 6.56101C13.3962 6.40415 12.7373 6.46689 12.0472 6.65513ZM22.306 13.3375H22.3687C22.4942 12.8983 22.4942 12.4277 22.4942 11.9571C22.4942 11.4237 22.4315 10.8904 22.3373 10.3571C21.9923 8.6316 21.2079 7.12572 19.9844 5.83944C19.2315 5.05513 18.3844 4.3963 17.5373 3.70611C16.7844 3.07866 15.9687 2.60807 15.0275 2.35709C14.1177 2.13748 13.2393 2.01199 12.2981 2.16885C12.2354 2.16885 12.1726 2.16885 12.1726 2.2316C12.1726 2.29434 12.2354 2.29434 12.2981 2.29434C13.6785 2.54532 14.9962 2.98454 16.2824 3.4865C17.5373 3.98846 18.604 4.71003 19.3883 5.83944C19.9217 6.62376 20.4236 7.43944 20.8315 8.31787C21.3648 9.51003 21.7726 10.7335 22.0236 11.9885C22.1491 12.4904 22.2432 12.8983 22.306 13.3375Z" fill="white"/>
<path id="Vector_4" fill-rule="evenodd" clip-rule="evenodd" d="M10.4158 7.72183C11.608 7.72183 12.5491 8.69437 12.5491 9.85516C12.5491 11.0473 11.5766 11.9885 10.3844 12.0199C9.19227 12.0199 8.2511 11.0473 8.2511 9.85516C8.2511 8.663 9.22365 7.72183 10.4158 7.72183ZM11.9217 9.88653C11.9217 9.03947 11.2629 8.38065 10.4158 8.38065C9.56875 8.38065 8.90992 9.03947 8.90992 9.88653C8.90992 10.7022 9.56874 11.3924 10.3844 11.3924H10.4158C11.2315 11.3924 11.8903 10.7336 11.9217 9.88653Z" fill="#FCFDFB"/>
<path id="Vector_5" fill-rule="evenodd" clip-rule="evenodd" d="M12.1726 14.3101C12.9883 14.8121 13.8981 14.8748 14.8079 14.8434C16.0628 14.7807 17.255 14.4983 18.3844 13.9964C18.8236 13.8081 19.2628 13.6199 19.6707 13.3689C19.702 13.3375 19.7334 13.3062 19.7961 13.3375C19.7648 13.4317 19.6706 13.463 19.5765 13.5258C18.353 14.3415 17.004 14.8434 15.5608 15.1258C14.7452 15.2826 13.8981 15.2826 13.1138 15.0003C12.7059 14.8434 12.3295 14.5924 12.1726 14.3101ZM12.0471 6.65519C12.7059 6.46695 13.3961 6.40421 14.055 6.65519C14.5569 6.84342 14.9334 7.18852 15.0903 7.72185C14.1491 7.21989 13.1138 6.90617 12.0471 6.65519Z" fill="#85939A"/>
<path id="Vector_6" fill-rule="evenodd" clip-rule="evenodd" d="M18.1021 12.4591C17.8511 12.4591 17.6315 12.2395 17.6315 11.9886C17.6315 11.7376 17.8197 11.518 18.0707 11.518C18.3217 11.518 18.5413 11.7062 18.5726 11.9572C18.5413 12.2395 18.353 12.4591 18.1021 12.4591Z" fill="#FCFDFB"/>
<path id="Vector_7" fill-rule="evenodd" clip-rule="evenodd" d="M19.9217 13.2433C19.9217 13.2747 19.8903 13.3061 19.8589 13.3061C19.8589 13.2433 19.8903 13.2119 19.9217 13.2433ZM20.0158 13.1806L19.9217 13.2433L19.8903 13.2119C19.9531 13.1806 19.9844 13.1806 20.0158 13.1806Z" fill="#85939A"/>
<path id="Vector_8" fill-rule="evenodd" clip-rule="evenodd" d="M22.306 13.3375C22.2119 12.8983 22.1178 12.4904 22.055 12.0512C21.804 10.765 21.3648 9.54143 20.8629 8.38065C20.4864 7.50222 19.9844 6.68653 19.4197 5.90222C18.6354 4.77281 17.6001 4.05124 16.3138 3.54928C14.9962 3.04732 13.7099 2.57673 12.3295 2.35712C12.2668 2.35712 12.204 2.35712 12.204 2.29437C12.204 2.23163 12.2668 2.23163 12.3295 2.23163C13.2393 2.07477 14.1491 2.16888 15.0589 2.41987C16.0001 2.67085 16.8158 3.1728 17.5687 3.76888C18.4158 4.45908 19.2629 5.1179 20.0158 5.90222C21.2393 7.18849 22.0236 8.69437 22.3687 10.4199C22.4629 10.9532 22.5256 11.4865 22.5256 12.0199C22.5256 12.4591 22.5256 12.9297 22.4001 13.4002L22.306 13.3375Z" fill="#FFFEFC"/>
<path id="Vector_9" fill-rule="evenodd" clip-rule="evenodd" d="M11.9217 9.88629C11.9217 10.702 11.2629 11.3922 10.4472 11.3922H10.4158C9.60011 11.3922 8.90991 10.7333 8.90991 9.88629V9.85491C8.90991 9.00786 9.60011 8.34903 10.4158 8.34903C11.2315 8.34903 11.9217 9.03923 11.9217 9.88629Z" fill="#85939A"/>
</g>
</svg>
