<svg width="32" height="33" viewBox="0 0 32 33" fill="none" xmlns="http://www.w3.org/2000/svg">
<g id="i_sperax_logo_gray.8e6d311a.svg" clip-path="url(#clip0_1_98)">
<path id="Vector" fill-rule="evenodd" clip-rule="evenodd" d="M25.4827 19.2474C18.6069 19.2474 13.0345 13.6766 13.0345 6.81008C13.0345 3.21498 10.1344 0.299999 6.51732 0.299999C2.93278 0.299999 0 3.21498 0 6.81008C0 10.4053 2.90015 13.3203 6.51732 13.3203H6.54984C13.393 13.3203 18.9328 18.8912 18.9653 25.7575V25.7899C18.9653 29.385 21.8655 32.3 25.4827 32.3C29.0999 32.3 32 29.385 32 25.7899C31.9674 22.1624 29.0672 19.2474 25.4827 19.2474Z" fill="#ABB7BD"/>
<path id="Vector_2" fill-rule="evenodd" clip-rule="evenodd" d="M6.54992 19.2474C2.96537 19.2474 0.0325928 22.1624 0.0325928 25.7575C0.0325928 29.3527 2.93274 32.2677 6.54992 32.2677C10.167 32.2677 13.0672 29.3527 13.0672 25.7575C13.0346 22.1624 10.1345 19.2474 6.54992 19.2474Z" fill="#ABB7BD"/>
<path id="Vector_3" fill-rule="evenodd" clip-rule="evenodd" d="M25.4827 0.299999C29.0821 0.299999 32 3.21462 32 6.81008C32 10.4055 29.0821 13.3203 25.4827 13.3203C21.8832 13.3203 18.9653 10.4055 18.9653 6.81008C18.9653 3.21462 21.8832 0.299999 25.4827 0.299999Z" fill="#ABB7BD"/>
</g>
<defs>
<clipPath id="clip0_1_98">
<rect width="32" height="32" fill="white" transform="translate(0 0.299999)"/>
</clipPath>
</defs>
</svg>
