<svg width="21" height="20" viewBox="0 0 21 20" fill="none" xmlns="http://www.w3.org/2000/svg">
<g id="Outline/General/Sun">
<g id="Icon">
<path d="M10.5001 1.04169C10.8453 1.04169 11.1251 1.32151 11.1251 1.66669V2.50002C11.1251 2.8452 10.8453 3.12502 10.5001 3.12502C10.1549 3.12502 9.87508 2.8452 9.87508 2.50002V1.66669C9.87508 1.32151 10.1549 1.04169 10.5001 1.04169Z" fill="black"/>
<path fill-rule="evenodd" clip-rule="evenodd" d="M5.70841 10C5.70841 7.35366 7.85372 5.20835 10.5001 5.20835C13.1464 5.20835 15.2917 7.35366 15.2917 10C15.2917 12.6464 13.1464 14.7917 10.5001 14.7917C7.85372 14.7917 5.70841 12.6464 5.70841 10ZM10.5001 6.45835C8.54407 6.45835 6.95841 8.04401 6.95841 10C6.95841 11.956 8.54407 13.5417 10.5001 13.5417C12.4561 13.5417 14.0417 11.956 14.0417 10C14.0417 8.04401 12.4561 6.45835 10.5001 6.45835Z" fill="black"/>
<path d="M5.04948 3.66554C4.8054 3.42146 4.40967 3.42146 4.16559 3.66554C3.92152 3.90962 3.92152 4.30535 4.16559 4.54942L4.75485 5.13868C4.99893 5.38276 5.39466 5.38276 5.63873 5.13868C5.88281 4.8946 5.88281 4.49887 5.63873 4.2548L5.04948 3.66554Z" fill="black"/>
<path d="M19.4584 10C19.4584 10.3452 19.1786 10.625 18.8334 10.625H18.0001C17.6549 10.625 17.3751 10.3452 17.3751 10C17.3751 9.65484 17.6549 9.37502 18.0001 9.37502H18.8334C19.1786 9.37502 19.4584 9.65484 19.4584 10Z" fill="black"/>
<path d="M16.8346 4.54942C17.0786 4.30534 17.0786 3.90961 16.8346 3.66553C16.5905 3.42146 16.1948 3.42146 15.9507 3.66553L15.3614 4.25479C15.1173 4.49887 15.1173 4.8946 15.3614 5.13867C15.6055 5.38275 16.0012 5.38275 16.2453 5.13867L16.8346 4.54942Z" fill="black"/>
<path d="M10.5001 16.875C10.8453 16.875 11.1251 17.1548 11.1251 17.5V18.3334C11.1251 18.6785 10.8453 18.9584 10.5001 18.9584C10.1549 18.9584 9.87508 18.6785 9.87508 18.3334V17.5C9.87508 17.1548 10.1549 16.875 10.5001 16.875Z" fill="black"/>
<path d="M16.2454 14.8614C16.0013 14.6173 15.6056 14.6173 15.3615 14.8614C15.1174 15.1055 15.1174 15.5012 15.3615 15.7453L15.9507 16.3345C16.1948 16.5786 16.5905 16.5786 16.8346 16.3345C17.0787 16.0904 17.0787 15.6947 16.8346 15.4506L16.2454 14.8614Z" fill="black"/>
<path d="M3.62508 10C3.62508 10.3452 3.34526 10.625 3.00008 10.625H2.16675C1.82157 10.625 1.54175 10.3452 1.54175 10C1.54175 9.65484 1.82157 9.37502 2.16675 9.37502H3.00008C3.34526 9.37502 3.62508 9.65484 3.62508 10Z" fill="black"/>
<path d="M5.63868 15.7452C5.88276 15.5012 5.88276 15.1054 5.63868 14.8614C5.3946 14.6173 4.99887 14.6173 4.75479 14.8614L4.16554 15.4506C3.92146 15.6947 3.92146 16.0904 4.16554 16.3345C4.40962 16.5786 4.80535 16.5786 5.04942 16.3345L5.63868 15.7452Z" fill="black"/>
</g>
</g>
</svg>
