<svg width="23" height="20" viewBox="0 0 23 20" fill="none" xmlns="http://www.w3.org/2000/svg">
<g id="Frame">
<path id="Vector" d="M22.8573 1.23182C22.8573 1.08788 22.7146 0.943939 22.5719 0.8C22.2864 0.8 22.001 0.8 21.7156 0.8C21.7156 0.8 1.73548 7.99697 0.593764 8.86061C0.16562 9.14848 0.16562 9.29242 0.0229048 9.29242C-0.11981 9.86818 0.45105 10.1561 0.45105 10.1561L5.58879 11.8833C5.7315 11.8833 5.7315 11.8833 5.87421 11.8833C7.01593 11.1636 17.7196 4.39848 18.2904 4.11061C18.4331 4.11061 18.4331 4.11061 18.4331 4.11061C18.1477 4.97424 9.01394 13.1788 9.01394 13.3227C9.01394 13.3227 8.87123 13.4667 9.01394 13.4667L8.5858 18.5045C8.5858 18.5045 8.44308 20.0879 10.0129 18.5045C11.1547 17.353 12.1537 16.4894 12.7245 16.0576C14.4371 17.353 16.4351 18.6485 17.2914 19.3682C17.5768 19.6561 18.005 19.8 18.2904 19.8C18.7186 19.8 19.1467 19.3682 19.2894 18.9364C19.2894 18.9364 23 4.11061 23 2.09545C23 1.95152 23 1.80758 23 1.66364C22.8573 1.5197 22.8573 1.37576 22.8573 1.23182Z" fill="#ABB7BD"/>
</g>
</svg>
