<svg width="23" height="20" viewBox="0 0 23 20" fill="none" xmlns="http://www.w3.org/2000/svg">
<g id="Frame">
<path id="Vector" d="M23 2.99231C22.1375 3.43077 21.275 3.57692 20.2688 3.72308C21.275 3.13846 21.9937 2.26154 22.2812 1.09231C21.4188 1.67692 20.4125 1.96923 19.2625 2.26154C18.4 1.38462 17.1063 0.8 15.8125 0.8C13.3687 0.8 11.2125 2.99231 11.2125 5.62308C11.2125 6.06154 11.2125 6.35385 11.3562 6.64615C7.475 6.5 3.88125 4.6 1.58125 1.67692C1.15 2.40769 1.00625 3.13846 1.00625 4.16154C1.00625 5.76923 1.86875 7.23077 3.1625 8.10769C2.44375 8.10769 1.725 7.81538 1.00625 7.52308C1.00625 9.86154 2.5875 11.7615 4.74375 12.2C4.3125 12.3462 3.88125 12.3462 3.45 12.3462C3.1625 12.3462 2.875 12.3462 2.5875 12.2C3.1625 14.1 4.8875 15.5615 7.04375 15.5615C5.4625 16.8769 3.45 17.6077 1.15 17.6077C0.71875 17.6077 0.43125 17.6077 0 17.6077C2.15625 18.9231 4.6 19.8 7.1875 19.8C15.8125 19.8 20.5562 12.4923 20.5562 6.20769C20.5562 6.06154 20.5562 5.76923 20.5562 5.62308C21.5625 4.89231 22.425 4.01538 23 2.99231Z" fill="#ABB7BD"/>
</g>
</svg>
